<?xml version="1.0" encoding="utf-8"?>
<!-- Generator: Adobe Illustrator 24.1.0, SVG Export Plug-In . SVG Version: 6.00 Build 0)  -->
<svg version="1.1" id="Calque_1" xmlns="http://www.w3.org/2000/svg" xmlns:xlink="http://www.w3.org/1999/xlink" x="0px" y="0px"
	 viewBox="0 0 1000 1000" style="enable-background:new 0 0 1000 1000;" xml:space="preserve">
<style type="text/css">
	.st0{fill:#27AE60;}
</style>
<g>
	<path class="st0" d="M499.1,772c-4.6,0-8.9-1.8-12.2-5L9.9,289.8c-6.7-6.7-6.7-17.6,0-24.3l31.2-31.2c3.2-3.2,7.6-5,12.2-5
		c4.6,0,8.9,1.8,12.2,5l477.1,477.1c6.7,6.7,6.7,17.6,0,24.3L511.3,767C508.1,770.2,503.7,772,499.1,772z"/>
	<path class="st0" d="M53.2,229.8c4.5,0,8.7,1.7,11.8,4.9l477.1,477.1c6.5,6.5,6.5,17.1,0,23.6l-31.2,31.2
		c-3.2,3.2-7.3,4.9-11.8,4.9s-8.7-1.7-11.8-4.9L10.2,289.5c-6.5-6.5-6.5-17.1,0-23.6l31.2-31.2C44.6,231.5,48.8,229.8,53.2,229.8
		 M53.2,228.8c-4.5,0-9.1,1.7-12.5,5.2L9.5,265.2c-6.9,6.9-6.9,18.1,0,25l477.1,477.1c3.5,3.5,8,5.2,12.5,5.2s9.1-1.7,12.5-5.2
		l31.2-31.2c6.9-6.9,6.9-18.1,0-25L65.7,234C62.3,230.5,57.8,228.8,53.2,228.8L53.2,228.8z"/>
</g>
<g>
	<path class="st0" d="M501.1,771.5c-4.6,0-8.9-1.8-12.2-5l-31.2-31.2c-6.7-6.7-6.7-17.6,0-24.3l477.1-477.1c3.2-3.2,7.6-5,12.2-5
		c4.6,0,8.9,1.8,12.2,5l31.2,31.2c3.2,3.2,5,7.6,5,12.2c0,4.6-1.8,8.9-5,12.2L513.3,766.4C510,769.7,505.7,771.5,501.1,771.5z"/>
	<path class="st0" d="M947,229.2c4.5,0,8.7,1.7,11.8,4.9l31.2,31.2c6.5,6.5,6.5,17.1,0,23.6L512.9,766.1c-3.2,3.2-7.3,4.9-11.8,4.9
		s-8.7-1.7-11.8-4.9l-31.2-31.2c-3.2-3.2-4.9-7.3-4.9-11.8s1.7-8.7,4.9-11.8l477.1-477.1C938.4,231,942.5,229.2,947,229.2
		 M947,228.2c-4.5,0-9.1,1.7-12.5,5.2L457.4,710.5c-6.9,6.9-6.9,18.1,0,25l31.2,31.2c3.5,3.5,8,5.2,12.5,5.2s9.1-1.7,12.5-5.2
		l477.1-477.1c6.9-6.9,6.9-18.1,0-25l-31.2-31.2C956.1,230,951.5,228.2,947,228.2L947,228.2z"/>
</g>
</svg>
