<?xml version="1.0" encoding="utf-8"?>
<!-- Generator: Adobe Illustrator 24.1.0, SVG Export Plug-In . SVG Version: 6.00 Build 0)  -->
<svg version="1.1" id="Calque_1" xmlns="http://www.w3.org/2000/svg" xmlns:xlink="http://www.w3.org/1999/xlink" x="0px" y="0px"
	 viewBox="0 0 1000 1000" style="enable-background:new 0 0 1000 1000;" xml:space="preserve">
<style type="text/css">
	.st0{fill:#27AE60;}
</style>
<g>
	<path class="st0" d="M0,809V191h186.7l112.1,421.5L409.7,191h187.2V809H480.9V322.6L358.3,809H238.1L115.9,322.6V809L0,809L0,809z"
		/>
</g>
<g>
	<path class="st0" d="M482.1,191h247c48.9,0,85.4,2,109.4,6.1s45.5,12.6,64.5,25.5c19,12.9,34.8,30.1,47.4,51.6
		c12.7,21.5,19,45.6,19,72.3c0,28.9-7.8,55.5-23.4,79.7c-15.6,24.2-36.7,42.3-63.4,54.4c37.6,11,66.6,29.6,86.8,56.1
		c20.2,26.4,30.4,57.5,30.4,93.2c0,28.1-6.5,55.4-19.6,82c-13.1,26.6-30.9,47.8-53.5,63.7c-22.6,15.9-50.5,25.6-83.7,29.3
		c-20.8,2.3-71,3.6-150.5,4.2H482.1L482.1,191L482.1,191z M606.9,293.8v142.9h81.8c48.6,0,78.8-0.7,90.6-2.1
		c21.3-2.5,38.1-9.9,50.4-22.1c12.2-12.2,18.3-28.3,18.3-48.3c0-19.1-5.3-34.6-15.8-46.6c-10.5-11.9-26.2-19.2-47-21.7
		c-12.4-1.4-47.9-2.1-106.6-2.1L606.9,293.8L606.9,293.8z M606.9,539.6v165.2h115.5c45,0,73.5-1.3,85.6-3.8
		c18.5-3.4,33.6-11.6,45.3-24.7c11.7-13.1,17.5-30.6,17.5-52.5c0-18.5-4.5-34.3-13.5-47.2c-9-12.9-22-22.3-39-28.2
		c-17-5.9-53.9-8.9-110.6-8.9L606.9,539.6L606.9,539.6z"/>
</g>
<g id="Calque_2_1_">
</g>
</svg>
