<?xml version="1.0" encoding="utf-8"?>
<!-- Generator: Adobe Illustrator 24.1.0, SVG Export Plug-In . SVG Version: 6.00 Build 0)  -->
<svg version="1.1" id="Calque_1" xmlns="http://www.w3.org/2000/svg" xmlns:xlink="http://www.w3.org/1999/xlink" x="0px" y="0px"
	 viewBox="0 0 1000 1000" style="enable-background:new 0 0 1000 1000;" xml:space="preserve">
<style type="text/css">
	.st0{fill:#CECECE;}
	.st1{fill:#27AE60;}
</style>
<g id="Calque_2_1_">
	<rect class="st0" width="1000" height="1000"/>
</g>
<g id="Calque_1_1_">
	<g>
		<path class="st1" d="M246.3,541.2V228H341l56.8,213.6L454,228h94.9v313.2H490V294.7l-62.2,246.5h-60.9L305,294.7v246.5H246.3
			L246.3,541.2z"/>
	</g>
	<g>
		<path class="st1" d="M490.6,228h125.2c24.8,0,43.2,1,55.4,3.1s23.1,6.3,32.7,12.9s17.7,15.2,24,26.2c6.4,10.9,9.6,23.1,9.6,36.6
			c0,14.7-3.9,28.1-11.9,40.4c-7.9,12.3-18.6,21.4-32.1,27.6c19.1,5.6,33.7,15,44,28.4c10.3,13.4,15.4,29.1,15.4,47.2
			c0,14.3-3.3,28.1-9.9,41.6c-6.6,13.4-15.7,24.2-27.1,32.3c-11.4,8.1-25.6,13-42.4,14.8c-10.6,1.2-36,1.9-76.3,2.1H490.5L490.6,228
			L490.6,228z M553.9,280.1v72.4h41.4c24.6,0,39.9-0.3,45.9-1c10.8-1.3,19.3-5,25.5-11.2s9.3-14.3,9.3-24.5c0-9.7-2.7-17.6-8-23.6
			s-13.3-9.7-23.9-11c-6.3-0.7-24.3-1-54.1-1L553.9,280.1L553.9,280.1z M553.9,404.7v83.8h58.5c22.8,0,37.2-0.6,43.4-1.9
			c9.4-1.7,17-5.9,23-12.5c5.9-6.6,8.9-15.5,8.9-26.6c0-9.4-2.3-17.4-6.8-23.9c-4.6-6.6-11.2-11.3-19.8-14.3s-27.3-4.5-56.1-4.5
			L553.9,404.7L553.9,404.7z"/>
	</g>
</g>
<g>
	<g>
		<path class="st1" d="M267.8,619.8h10.2l31.4,85.2h-12.9l-23.6-68.7L249.2,705h-12.9L267.8,619.8z M250.8,674.9h44.8v11.4h-44.8
			V674.9z M254.7,601.3l7.1-8l16.2,14.4l-6.6,6.9L254.7,601.3z"/>
		<path class="st1" d="M345.7,619.8h13l20.4,66.8l20.4-66.8h13L384.8,705h-11.4L345.7,619.8z"/>
		<path class="st1" d="M424.9,619.8h12V705h-12V619.8z M430.7,619.8h48.9v11.4h-48.9V619.8z M430.7,657h42.5v11.4h-42.5V657z
			 M430.7,693.6h48.9V705h-48.9V693.6z"/>
		<path class="st1" d="M496.6,619.8h10.8l41.7,65.9l-1.4,1.5v-67.4h11.8v85.1h-11L507,640.1l1.4-1.5v66.4h-11.8V619.8z"/>
		<path class="st1" d="M592.6,705h-12v-85.2h12V705z"/>
		<path class="st1" d="M613.7,619.7h12V705h-12V619.7z M618.9,657.6H648c2.3,0,4.3-0.5,6-1.6c1.8-1.1,3.1-2.6,4.1-4.7
			c1-2,1.4-4.3,1.4-6.9c0-2.6-0.5-4.9-1.4-6.9c-1-2-2.3-3.6-4-4.7c-1.7-1.1-3.8-1.6-6.1-1.6h-29.1v-11.4h28.6c4.9,0,9.2,1,13,3
			c3.7,2,6.6,4.9,8.7,8.6c2.1,3.7,3.1,8,3.1,12.9c0,4.9-1,9.2-3.1,12.9c-2.1,3.7-5,6.6-8.7,8.6c-3.7,2-8,3-12.9,3h-28.6V657.6z
			 M642.1,666.3l11.9-2.7l21.8,41.4h-14.2L642.1,666.3z"/>
		<path class="st1" d="M688.7,692.5h12.5V705h-12.5V692.5z"/>
		<path class="st1" d="M715.9,692.5h12.5V705h-12.5V692.5z"/>
		<path class="st1" d="M743.1,692.5h12.5V705h-12.5V692.5z"/>
	</g>
</g>
</svg>
