<?xml version="1.0" encoding="utf-8"?>
<!-- Generator: Adobe Illustrator 24.1.0, SVG Export Plug-In . SVG Version: 6.00 Build 0)  -->
<svg version="1.1" id="Calque_1" xmlns="http://www.w3.org/2000/svg" xmlns:xlink="http://www.w3.org/1999/xlink" x="0px" y="0px"
	 viewBox="0 0 1000 1000" style="enable-background:new 0 0 1000 1000;" xml:space="preserve">
<style type="text/css">
	.st0{fill:#E4E4E4;}
	.st1{fill:#27AE60;}
</style>
<g id="Calque_2_1_">
	<rect class="st0" width="1000" height="1000"/>
</g>
<g id="Calque_1_1_">
	<g>
		<path class="st1" d="M246.3,656.2V343H341l56.8,213.6L454,343h94.9v313.2H490V409.7l-62.2,246.5h-60.9L305,409.7v246.5H246.3
			L246.3,656.2z"/>
	</g>
	<g>
		<path class="st1" d="M490.6,343h125.2c24.8,0,43.2,1,55.4,3.1s23.1,6.3,32.7,12.9s17.7,15.2,24,26.2c6.4,10.9,9.6,23.1,9.6,36.6
			c0,14.7-3.9,28.1-11.9,40.4c-7.9,12.3-18.6,21.4-32.1,27.6c19.1,5.6,33.7,15,44,28.4c10.3,13.4,15.4,29.1,15.4,47.2
			c0,14.3-3.3,28.1-9.9,41.6c-6.6,13.4-15.7,24.2-27.1,32.3c-11.4,8.1-25.6,13-42.4,14.8c-10.6,1.2-36,1.9-76.3,2.1H490.5L490.6,343
			L490.6,343z M553.9,395.1v72.4h41.4c24.6,0,39.9-0.3,45.9-1c10.8-1.3,19.3-5,25.5-11.2s9.3-14.3,9.3-24.5c0-9.7-2.7-17.6-8-23.6
			s-13.3-9.7-23.9-11c-6.3-0.7-24.3-1-54.1-1L553.9,395.1L553.9,395.1z M553.9,519.7v83.8h58.5c22.8,0,37.2-0.6,43.4-1.9
			c9.4-1.7,17-5.9,23-12.5c5.9-6.6,8.9-15.5,8.9-26.6c0-9.4-2.3-17.4-6.8-23.9c-4.6-6.6-11.2-11.3-19.8-14.3s-27.3-4.5-56.1-4.5
			L553.9,519.7L553.9,519.7z"/>
	</g>
</g>
</svg>
