<?xml version="1.0" encoding="utf-8"?>
<!-- Generator: Adobe Illustrator 24.1.0, SVG Export Plug-In . SVG Version: 6.00 Build 0)  -->
<svg version="1.1" id="Calque_1" xmlns="http://www.w3.org/2000/svg" xmlns:xlink="http://www.w3.org/1999/xlink" x="0px" y="0px"
	 viewBox="0 0 1000 1000" style="enable-background:new 0 0 1000 1000;" xml:space="preserve">
<style type="text/css">
	.st0{fill:#FF0000;}
</style>
<g>
	<path d="M230,503.5l21.5,2.4c-1.2,4.5-3.1,8.4-5.8,11.6c-2.7,3.3-6.2,5.8-10.3,7.6c-4.2,1.8-9.5,2.7-16,2.7
		c-6.3,0-11.5-0.6-15.6-1.7c-4.2-1.2-7.7-3-10.7-5.7c-3-2.6-5.3-5.7-7-9.2c-1.7-3.5-2.6-8.2-2.6-14c0-6.1,1-11.1,3.1-15.1
		c1.5-3,3.6-5.6,6.2-8c2.6-2.3,5.3-4.1,8.1-5.2c4.4-1.8,10-2.7,16.9-2.7c9.6,0,17,1.7,22,5.2c5,3.4,8.6,8.5,10.6,15.1l-21.3,2.8
		c-0.7-2.5-1.9-4.4-3.6-5.7c-1.8-1.3-4.1-1.9-7.1-1.9c-3.7,0-6.8,1.3-9.1,4c-2.3,2.7-3.5,6.7-3.5,12.2c0,4.8,1.1,8.5,3.4,11
		c2.3,2.5,5.2,3.8,8.8,3.8c3,0,5.4-0.8,7.5-2.3C227.5,509,229,506.7,230,503.5z"/>
	<path d="M259.9,445.3h22.6v30c3.1-3.2,6.1-5.5,9.2-6.8c3-1.4,6.6-2.1,10.8-2.1c6.1,0,11,1.9,14.5,5.6c3.5,3.7,5.3,9.5,5.3,17.2
		v37.5h-22.7v-32.4c0-3.7-0.7-6.3-2.1-7.9c-1.4-1.5-3.3-2.3-5.8-2.3c-2.7,0-5,1-6.7,3.1c-1.7,2.1-2.6,5.8-2.6,11.2v28.3h-22.6
		L259.9,445.3L259.9,445.3z"/>
	<path d="M401.1,502.8h-45.3c0.4,3.6,1.4,6.3,2.9,8.1c2.2,2.6,5,3.8,8.5,3.8c2.2,0,4.3-0.6,6.3-1.7c1.2-0.7,2.5-1.9,3.9-3.7
		l22.3,2.1c-3.4,5.9-7.5,10.2-12.3,12.7c-4.8,2.6-11.7,3.9-20.7,3.9c-7.8,0-13.9-1.1-18.4-3.3c-4.5-2.2-8.2-5.7-11.1-10.5
		c-2.9-4.8-4.4-10.4-4.4-16.9c0-9.2,3-16.7,8.9-22.4s14-8.5,24.4-8.5c8.4,0,15.1,1.3,20,3.8c4.9,2.6,8.6,6.3,11.2,11.1
		c2.6,4.8,3.8,11.2,3.8,18.9L401.1,502.8L401.1,502.8z M378.2,491.9c-0.4-4.4-1.6-7.5-3.5-9.4c-1.9-1.9-4.4-2.8-7.5-2.8
		c-3.6,0-6.5,1.4-8.6,4.3c-1.4,1.8-2.2,4.4-2.6,7.9H378.2z"/>
</g>
<g>
	<path d="M509.5,445h22.6v15.4h-22.6V445L509.5,445z M509.5,467.4h22.6v58.9h-22.6V467.4L509.5,467.4z"/>
	<path d="M547.3,445h22.6v81.3h-22.6V445z"/>
	<path d="M585.1,445h22.6v81.3h-22.6V445z"/>
	<path d="M687.6,502.5h-45.3c0.4,3.6,1.4,6.3,2.9,8.1c2.2,2.6,5,3.8,8.5,3.8c2.2,0,4.3-0.6,6.3-1.7c1.2-0.7,2.5-1.9,3.9-3.7
		l22.3,2.1c-3.4,5.9-7.5,10.2-12.3,12.7c-4.8,2.6-11.7,3.9-20.7,3.9c-7.8,0-13.9-1.1-18.4-3.3c-4.5-2.2-8.2-5.7-11.1-10.5
		c-2.9-4.8-4.4-10.4-4.4-16.9c0-9.2,3-16.7,8.9-22.4c5.9-5.7,14-8.5,24.4-8.5c8.4,0,15.1,1.3,20,3.8s8.6,6.3,11.2,11.1
		c2.6,4.8,3.8,11.2,3.8,18.9V502.5z M664.7,491.7c-0.4-4.4-1.6-7.5-3.5-9.4c-1.9-1.9-4.4-2.8-7.5-2.8c-3.6,0-6.5,1.4-8.6,4.3
		c-1.4,1.8-2.2,4.4-2.6,7.9H664.7z"/>
	<path d="M698.2,467.4h21.1v9.7c2-4.2,4.1-7.1,6.3-8.6c2.2-1.6,4.8-2.4,8-2.4c3.3,0,7,1,10.9,3.1l-7,16.1c-2.7-1.1-4.8-1.7-6.3-1.7
		c-3,0-5.3,1.2-6.9,3.7c-2.3,3.4-3.5,9.9-3.5,19.3v19.8h-22.7L698.2,467.4L698.2,467.4z"/>
	<path d="M815.7,502.5h-45.3c0.4,3.6,1.4,6.3,2.9,8.1c2.2,2.6,5,3.8,8.5,3.8c2.2,0,4.3-0.6,6.3-1.7c1.2-0.7,2.5-1.9,3.9-3.7
		l22.3,2.1c-3.4,5.9-7.5,10.2-12.3,12.7c-4.8,2.6-11.7,3.9-20.7,3.9c-7.8,0-13.9-1.1-18.4-3.3c-4.5-2.2-8.2-5.7-11.1-10.5
		c-2.9-4.8-4.4-10.4-4.4-16.9c0-9.2,3-16.7,8.9-22.4c5.9-5.7,14-8.5,24.4-8.5c8.4,0,15.1,1.3,20,3.8c4.9,2.6,8.6,6.3,11.2,11.1
		c2.6,4.8,3.8,11.2,3.8,18.9V502.5z M792.7,491.7c-0.4-4.4-1.6-7.5-3.5-9.4c-1.9-1.9-4.4-2.8-7.5-2.8c-3.6,0-6.5,1.4-8.6,4.3
		c-1.4,1.8-2.2,4.4-2.6,7.9H792.7z"/>
</g>
<g>
	<path class="st0" d="M433.4,578.7L382.1,404h31.3l36.3,129.3L484.8,404h30.7l-51.4,174.7H433.4z"/>
</g>
<g>
	<path d="M509.5,568.1v-9.7h19v9.7H509.5z"/>
	<path d="M530.6,571.1l9.7-1.5c0.4,1.9,1.2,3.3,2.5,4.3c1.3,1,3,1.5,5.3,1.5c2.5,0,4.4-0.5,5.6-1.4c0.8-0.6,1.3-1.5,1.3-2.6
		c0-0.7-0.2-1.3-0.7-1.8c-0.5-0.5-1.6-0.9-3.2-1.3c-7.8-1.7-12.7-3.3-14.8-4.7c-2.9-2-4.3-4.7-4.3-8.2c0-3.2,1.2-5.8,3.7-8
		c2.5-2.2,6.4-3.2,11.6-3.2c5,0,8.7,0.8,11.1,2.4c2.4,1.6,4.1,4,5,7.2l-9.1,1.7c-0.4-1.4-1.1-2.5-2.2-3.3s-2.6-1.1-4.7-1.1
		c-2.5,0-4.4,0.4-5.5,1.1c-0.7,0.5-1.1,1.2-1.1,2c0,0.7,0.3,1.3,1,1.8c0.9,0.6,3.9,1.5,9,2.7c5.1,1.2,8.7,2.6,10.8,4.3
		c2,1.7,3,4.1,3,7.2c0,3.3-1.4,6.2-4.2,8.6c-2.8,2.4-6.9,3.6-12.4,3.6c-5,0-8.9-1-11.8-3C533.4,577.4,531.5,574.6,530.6,571.1z"/>
	<path d="M572.9,545h9v5.4c1.2-1.8,2.8-3.3,4.7-4.5c2-1.1,4.2-1.7,6.6-1.7c4.2,0,7.8,1.7,10.8,5c3,3.3,4.4,8,4.4,13.9
		c0,6.1-1.5,10.8-4.5,14.2c-3,3.4-6.6,5.1-10.8,5.1c-2,0-3.8-0.4-5.5-1.2c-1.6-0.8-3.4-2.2-5.2-4.1v18.4h-9.7L572.9,545L572.9,545z
		 M582.5,562.7c0,4.1,0.8,7.1,2.4,9.1c1.6,2,3.6,2.9,6,2.9c2.2,0,4.1-0.9,5.6-2.7c1.5-1.8,2.2-4.8,2.2-8.9c0-3.8-0.8-6.7-2.3-8.5
		c-1.5-1.9-3.4-2.8-5.7-2.8c-2.4,0-4.3,0.9-5.9,2.7C583.3,556.4,582.5,559.1,582.5,562.7z"/>
	<path d="M614,562.8c0-3.2,0.8-6.3,2.4-9.3c1.6-3,3.8-5.3,6.7-6.9c2.9-1.6,6.1-2.4,9.7-2.4c5.5,0,10.1,1.8,13.6,5.4
		c3.5,3.6,5.3,8.1,5.3,13.6c0,5.5-1.8,10.1-5.3,13.7s-8.1,5.5-13.5,5.5c-3.3,0-6.5-0.8-9.6-2.3c-3-1.5-5.3-3.7-6.9-6.7
		C614.8,570.5,614,567,614,562.8z M623.9,563.3c0,3.6,0.9,6.4,2.6,8.3s3.8,2.9,6.4,2.9c2.5,0,4.6-1,6.3-2.9c1.7-1.9,2.6-4.7,2.6-8.4
		c0-3.6-0.9-6.3-2.6-8.3c-1.7-1.9-3.8-2.9-6.3-2.9c-2.5,0-4.6,1-6.4,2.9C624.7,556.9,623.9,559.7,623.9,563.3z"/>
	<path d="M668.5,581.6h-9.7V545h9v5.2c1.5-2.5,2.9-4.1,4.1-4.8c1.2-0.8,2.6-1.2,4.2-1.2c2.2,0,4.3,0.6,6.4,1.8l-3,8.4
		c-1.6-1.1-3.1-1.6-4.5-1.6c-1.4,0-2.5,0.4-3.4,1.1s-1.7,2.1-2.2,4s-0.8,6-0.8,12.2V581.6z"/>
	<path d="M703.4,545v7.7h-6.6v14.7c0,3,0.1,4.7,0.2,5.2c0.1,0.5,0.4,0.9,0.9,1.2c0.4,0.3,1,0.5,1.6,0.5c0.9,0,2.2-0.3,3.9-0.9
		l0.8,7.5c-2.2,1-4.8,1.4-7.6,1.4c-1.7,0-3.3-0.3-4.7-0.9c-1.4-0.6-2.4-1.3-3.1-2.3c-0.7-0.9-1.1-2.2-1.4-3.8
		c-0.2-1.1-0.3-3.4-0.3-6.8v-15.9h-4.4V545h4.4v-7.3l9.7-5.6V545L703.4,545L703.4,545z"/>
	<path d="M706.7,571.1l9.7-1.5c0.4,1.9,1.2,3.3,2.5,4.3c1.3,1,3,1.5,5.3,1.5c2.5,0,4.4-0.5,5.6-1.4c0.8-0.6,1.3-1.5,1.3-2.6
		c0-0.7-0.2-1.3-0.7-1.8c-0.5-0.5-1.6-0.9-3.2-1.3c-7.8-1.7-12.7-3.3-14.8-4.7c-2.9-2-4.3-4.7-4.3-8.2c0-3.2,1.2-5.8,3.7-8
		c2.5-2.2,6.4-3.2,11.6-3.2c5,0,8.7,0.8,11.1,2.4c2.4,1.6,4.1,4,5,7.2l-9.1,1.7c-0.4-1.4-1.1-2.5-2.2-3.3c-1.1-0.8-2.6-1.1-4.7-1.1
		c-2.5,0-4.4,0.4-5.5,1.1c-0.7,0.5-1.1,1.2-1.1,2c0,0.7,0.3,1.3,1,1.8c0.9,0.6,3.9,1.5,9,2.7c5.1,1.2,8.7,2.6,10.8,4.3
		c2,1.7,3,4.1,3,7.2c0,3.3-1.4,6.2-4.2,8.6c-2.8,2.4-6.9,3.6-12.4,3.6c-5,0-8.9-1-11.8-3C709.5,577.4,707.6,574.6,706.7,571.1z"/>
	<path d="M749.3,581.6v-9.7h9.7v9.7H749.3z"/>
	<path d="M764.6,545h5.4v-2.8c0-3.1,0.3-5.4,1-6.9c0.7-1.5,1.9-2.7,3.6-3.7c1.8-1,4-1.4,6.7-1.4c2.8,0,5.4,0.4,8.1,1.2l-1.3,6.7
		c-1.5-0.4-3-0.6-4.4-0.6c-1.4,0-2.4,0.3-3,1c-0.6,0.7-0.9,1.9-0.9,3.8v2.6h7.2v7.6h-7.2v28.9H770v-28.9h-5.4V545z"/>
	<path d="M801.6,581.6h-9.7V545h9v5.2c1.5-2.5,2.9-4.1,4.1-4.8c1.2-0.8,2.6-1.2,4.2-1.2c2.2,0,4.3,0.6,6.4,1.8l-3,8.4
		c-1.6-1.1-3.1-1.6-4.5-1.6c-1.4,0-2.5,0.4-3.4,1.1s-1.7,2.1-2.2,4c-0.5,1.9-0.8,6-0.8,12.2V581.6z"/>
</g>
</svg>
