<?xml version="1.0" encoding="utf-8"?>
<!-- Generator: Adobe Illustrator 24.1.0, SVG Export Plug-In . SVG Version: 6.00 Build 0)  -->
<svg version="1.1" id="Calque_1" xmlns="http://www.w3.org/2000/svg" xmlns:xlink="http://www.w3.org/1999/xlink" x="0px" y="0px"
	 viewBox="0 0 1920 1080" style="enable-background:new 0 0 1920 1080;" xml:space="preserve">
<style type="text/css">
	.st0{fill:#27AE60;}
</style>
<g>
	<path class="st0" d="M499.47,767.21V313.02h137.25l82.41,309.81l81.48-309.81h137.56v454.19h-85.21V409.69l-90.15,357.52h-88.3
		l-89.85-357.52v357.53L499.47,767.21L499.47,767.21z"/>
</g>
<g>
	<path class="st0" d="M853.84,312.99h181.55c35.94,0,62.74,1.5,80.4,4.5c17.66,3,33.46,9.24,47.4,18.74
		c13.94,9.5,25.56,22.15,34.85,37.96c9.3,15.8,13.94,33.51,13.94,53.13c0,21.27-5.73,40.79-17.19,58.56
		c-11.47,17.77-27.01,31.09-46.62,39.97c27.67,8.06,48.95,21.79,63.82,41.2c14.87,19.42,22.31,42.24,22.31,68.47
		c0,20.66-4.8,40.74-14.41,60.26c-9.6,19.52-22.72,35.12-39.35,46.79c-16.63,11.67-37.13,18.85-61.5,21.53
		c-15.29,1.66-52.16,2.68-110.6,3.1h-154.6V312.99z M945.55,388.58v105.03h60.1c35.73,0,57.94-0.51,66.61-1.55
		c15.69-1.86,28.04-7.28,37.02-16.27c8.98-8.98,13.48-20.81,13.48-35.47c0-14.04-3.88-25.46-11.62-34.23s-19.26-14.1-34.55-15.95
		c-9.09-1.03-35.22-1.55-78.38-1.55H945.55z M945.55,569.21v121.45h84.89c33.04,0,54.01-0.93,62.89-2.79
		c13.63-2.48,24.73-8.52,33.31-18.13c8.57-9.6,12.86-22.46,12.86-38.57c0-13.63-3.31-25.2-9.92-34.7
		c-6.61-9.49-16.16-16.42-28.66-20.76c-12.5-4.33-39.61-6.51-81.32-6.51L945.55,569.21L945.55,569.21z"/>
</g>
<g id="Calque_2_1_">
</g>
<g>
</g>
<g>
</g>
<g>
	<path class="st0" d="M61.58,516.46L457.73,312.4v58.91L123.9,538.66v1.71L457.73,707.7v58.91L61.58,562.56V516.46z"/>
</g>
<g>
	<path class="st0" d="M1847,563.91l-395.85,203.05v-58.87l336.13-167.21v-1.71l-336.13-167.21v-58.87L1847,516.13V563.91z"/>
</g>
<g>
	<path class="st0" d="M1202.52,787.71l192.11-499.21h46.82l-192.8,499.21H1202.52z"/>
</g>
<g>
</g>
<g>
</g>
<g>
</g>
<g>
</g>
<g>
</g>
<g>
</g>
<g>
</g>
<g>
</g>
<g>
</g>
<g>
</g>
<g>
</g>
<g>
</g>
<g>
</g>
<g>
</g>
<g>
</g>
</svg>
