<?xml version="1.0" encoding="utf-8"?>
<!-- Generator: Adobe Illustrator 24.1.0, SVG Export Plug-In . SVG Version: 6.00 Build 0)  -->
<svg version="1.1" id="Calque_1" xmlns="http://www.w3.org/2000/svg" xmlns:xlink="http://www.w3.org/1999/xlink" x="0px" y="0px"
	 viewBox="0 0 1000 300" style="enable-background:new 0 0 1000 300;" xml:space="preserve">
<style type="text/css">
	.st0{fill:#27AE60;}
</style>
<g>
	<path class="st0" d="M363,277.8V23.6h76.8L485.9,197l45.6-173.4h77v254.2h-47.7V77.7l-50.5,200.1h-49.4L410.7,77.7v200.1H363
		L363,277.8z"/>
</g>
<g>
	<path class="st0" d="M561.3,23.6h101.6c20.1,0,35.1,0.8,45,2.5c9.9,1.7,18.7,5.1,26.5,10.5s14.3,12.4,19.5,21.3
		c5.2,8.8,7.8,18.7,7.8,29.7c0,11.9-3.2,22.8-9.6,32.8c-6.4,10-15.1,17.4-26.1,22.4c15.5,4.5,27.4,12.2,35.7,23.1
		c8.3,10.9,12.5,23.6,12.5,38.3c0,11.6-2.7,22.8-8.1,33.7c-5.4,10.9-12.7,19.6-22,26.2c-9.3,6.5-20.8,10.5-34.4,12
		c-8.6,1-29.2,1.5-61.9,1.7h-86.5L561.3,23.6L561.3,23.6z M612.6,65.9v58.8h33.6c20,0,32.4-0.3,37.3-0.8c8.8-1.1,15.7-4.1,20.7-9.1
		c5-5,7.6-11.6,7.6-19.9c0-7.8-2.2-14.3-6.5-19.1s-10.8-7.9-19.4-9c-5.1-0.6-19.7-0.8-43.9-0.8H612.6L612.6,65.9z M612.6,167v68
		h47.5c18.5,0,30.2-0.5,35.2-1.6c7.6-1.4,13.8-4.8,18.6-10.1s7.2-12.6,7.2-21.6c0-7.6-1.8-14.1-5.5-19.4c-3.7-5.3-9.1-9.2-16.1-11.6
		c-7-2.4-22.2-3.6-45.5-3.6L612.6,167L612.6,167z"/>
</g>
<g>
	<path class="st0" d="M0.4,139.2L222.1,24.9v33L35.2,151.6v1l186.8,93.6v33L0.3,165L0.4,139.2L0.4,139.2z"/>
</g>
<g>
	<path class="st0" d="M999.6,165.7L778.1,279.3v-33l188.1-93.6v-1L778.1,58.3v-33l221.5,113.6V165.7z"/>
</g>
<g>
	<path class="st0" d="M227,290.4L334.5,11h26.2L252.8,290.4H227z"/>
</g>
</svg>
